PathFileType	4	(X/Y/Z)	C:\Users\Basilio\Documents\Thesis Gigler\squatting_fais\c3dfiles\054\SLS_front_pre2\markers_experimental.trc
DataRate	CameraRate	NumFrames	NumMarkers	Units	OrigDataRate	OrigDataStartFrame	OrigNumFrames
200.000000	200.000000	4	61	mm	200.000000	547	1461
Frame#	Time	FHD			LBHD			RBHD			C7			T10			CLAV			LSHO			LUUPA			LMUPA			LDUPA			LLEP			LMEP			LRAD			LUL			LRFIN			RSHO			RUPA1			RMUPA			RDUPA			RLEP			RMEP			RRAD			RUL			RUFIN			LASI			RASI			USACR			LSACR			RSACR			LTHI1			LTHI2			LTHI3			LTHI4			LLFC			LMFC			LTIB1			LTIB2			LTIB3			LTIB4			LLMAL			LMMAL			LHEE			LMT1			LMT2			LMT5			RTHI			RTHI2			RTHI3			RTHI4			RLFC			RMFC			RTIB1			RTIB2			RTIB3			RTIB4			RLMAL			RMMAL			RHEE			RMT1			RMT2			RMT5			
		X1	Y1	Z1	X2	Y2	Z2	X3	Y3	Z3	X4	Y4	Z4	X5	Y5	Z5	X6	Y6	Z6	X7	Y7	Z7	X8	Y8	Z8	X9	Y9	Z9	X10	Y10	Z10	X11	Y11	Z11	X12	Y12	Z12	X13	Y13	Z13	X14	Y14	Z14	X15	Y15	Z15	X16	Y16	Z16	X17	Y17	Z17	X18	Y18	Z18	X19	Y19	Z19	X20	Y20	Z20	X21	Y21	Z21	X22	Y22	Z22	X23	Y23	Z23	X24	Y24	Z24	X25	Y25	Z25	X26	Y26	Z26	X27	Y27	Z27	X28	Y28	Z28	X29	Y29	Z29	X30	Y30	Z30	X31	Y31	Z31	X32	Y32	Z32	X33	Y33	Z33	X34	Y34	Z34	X35	Y35	Z35	X36	Y36	Z36	X37	Y37	Z37	X38	Y38	Z38	X39	Y39	Z39	X40	Y40	Z40	X41	Y41	Z41	X42	Y42	Z42	X43	Y43	Z43	X44	Y44	Z44	X45	Y45	Z45	X46	Y46	Z46	X47	Y47	Z47	X48	Y48	Z48	X49	Y49	Z49	X50	Y50	Z50	X51	Y51	Z51	X52	Y52	Z52	X53	Y53	Z53	X54	Y54	Z54	X55	Y55	Z55	X56	Y56	Z56	X57	Y57	Z57	X58	Y58	Z58	X59	Y59	Z59	X60	Y60	Z60	X61	Y61	Z61	

548	2.735	-203.9704895019532	1729.416381835938	-1078.802612304688	-363.1839294433594	1677.862426757813	-1154.554077148438	-384.0440368652345	1673.23486328125	-1015.542419433594	-412.1150512695314	1515.650268554688	-1074.135009765625	-483.8522949218751	1191.947875976563	-1074.901123046875	-274.6758422851563	1443.108642578125	-1085.930541992188	-343.2190246582032	1507.77197265625	-1234.104248046875	-235.3814086914063	1378.213500976563	-1389.030883789063	-197.9054718017579	1410.084716796875	-1385.464111328125	-173.2282867431641	1364.281860351563	-1415.9580078125	-118.6488647460938	1363.355224609375	-1428.546142578125	-111.4312438964844	1297.888916015625	-1384.418823242188	149.818832397461	1362.819458007813	-1417.835693359375	145.2486572265625	1331.734130859375	-1490.4609375	232.8279113769532	1380.39013671875	-1457.448608398438	-323.8032531738282	1498.841064453125	-931.6601562500002	-184.9825592041016	1374.523803710938	-799.260681152344	-148.8191528320313	1404.59130859375	-806.6821899414065	-118.586181640625	1356.482788085938	-784.3506469726565	-74.2775115966797	1349.701049804688	-782.6748657226565	-73.83436584472658	1296.43603515625	-835.6807861328127	194.0757446289063	1413.580322265625	-860.9227294921877	194.6373748779297	1368.166259765625	-795.149353027344	270.3526611328126	1438.942993164063	-837.8909912109377	-307.6856689453126	1006.808349609375	-1180.382934570313	-312.1864624023438	1032.7109375	-934.1661376953127	-495.629119873047	1095.966796875	-1066.403076171875	-499.8238525390626	1062.0439453125	-1092.355224609375	-501.167449951172	1065.422485351563	-1035.119384765625	-324.8847961425782	757.4981689453126	-1252.379638671875	-266.7672424316407	695.9720458984376	-1245.898071289063	-224.3933410644532	716.3539428710939	-1240.792358398438	-273.8954772949219	638.4302978515626	-1225.834228515625	-222.4558868408204	500.2332763671876	-1190.723876953125	-186.4125213623047	519.3510742187501	-1059.610473632813	-203.8893585205079	346.4064636230469	-1113.180908203125	-264.1857299804688	300.7822265625001	-1160.645141601563	-226.7771453857422	296.1678161621094	-1135.474731445313	-248.4253082275391	230.2366638183594	-1086.332641601563	-340.2883605957032	109.0604095458985	-1104.156616210938	-302.8191223144532	137.5111846923828	-1016.871704101563	-407.698944091797	105.4574279785157	-1040.121704101563	-198.6019897460938	59.85947036743165	-1020.119812011719	-190.1641693115235	54.70813369750978	-1068.981689453125	-242.8822937011719	37.18417358398438	-1118.589965820313	-235.2191619873047	765.1760253906251	-847.6204833984377	-171.4425201416016	747.0651855468751	-856.0564575195315	-147.291488647461	767.6701049804689	-865.0705566406252	-145.6381072998047	668.4259033203126	-869.465270996094	-107.6470031738282	586.9950561523439	-874.5480957031252	-76.43064117431642	613.9432983398439	-1005.740783691406	-18.80149841308594	508.0425109863282	-885.118591308594	-56.95193099975587	413.6873779296876	-853.7274169921877	-12.51172065734864	423.3065185546876	-864.245056152344	18.6923885345459	382.9864196777344	-890.5996093750002	25.88863754272462	198.6737823486329	-875.1695556640627	61.7001304626465	224.3759002685547	-958.8697509765627	-19.78234100341797	151.8251953125	-937.1016235351565	201.2082519531251	181.8306579589844	-934.0833740234377	200.4846801757813	190.334716796875	-886.4835205078127	153.6835632324219	161.289794921875	-841.5337524414065	
549	2.74	-203.3572235107422	1728.3662109375	-1079.376708984375	-363.0447998046876	1676.882202148438	-1155.117553710938	-383.7551879882813	1672.430053710938	-1015.975036621094	-411.8311462402345	1514.83447265625	-1074.583251953125	-484.1075134277345	1191.252563476563	-1075.044799804688	-274.4942016601563	1442.126708984375	-1086.343383789063	-342.9817504882813	1507.11865234375	-1234.650146484375	-235.2305297851563	1377.000732421875	-1389.020263671875	-197.6120758056641	1408.717407226563	-1385.577026367188	-172.7135620117188	1363.257202148438	-1415.915893554688	-117.9261932373047	1362.286865234375	-1428.526000976563	-110.9605026245117	1296.896728515625	-1384.071166992188	150.2904663085938	1361.590942382813	-1417.167724609375	145.6457672119141	1330.42138671875	-1489.939819335938	233.6160583496094	1379.113891601563	-1456.931518554688	-323.3680725097657	1498.122924804688	-932.098327636719	-184.3969116210938	1374.011474609375	-799.832214355469	-148.3817596435547	1404.204833984375	-807.0504150390627	-118.1555709838867	1355.85693359375	-784.7227783203127	-73.7757034301758	1349.160034179688	-783.0479736328127	-73.64658355712892	1295.839965820313	-835.8941040039065	194.5703582763672	1413.927856445313	-861.679138183594	194.9807739257813	1367.898193359375	-795.9814453125002	270.6303100585938	1438.721801757813	-838.7609863281252	-307.9294128417969	1005.657653808594	-1180.6611328125	-312.6640930175782	1032.0869140625	-934.1763916015627	-495.9917297363282	1095.280517578125	-1066.32421875	-501.0524291992189	1061.484741210938	-1092.305053710938	-502.7896423339845	1064.906372070313	-1035.073974609375	-325.0330505371094	756.8372192382814	-1252.645751953125	-266.9601745605469	695.8231201171876	-1246.326049804688	-224.5467681884766	715.9496459960939	-1241.08642578125	-273.5788879394532	637.9621582031251	-1226.123657226563	-221.889389038086	500.0523376464845	-1191.090576171875	-185.6866149902344	519.0308227539064	-1060.137084960938	-203.7496490478516	346.2002258300782	-1113.407836914063	-264.1034240722657	300.6193542480469	-1160.994018554688	-226.7079620361329	295.8826904296876	-1135.5986328125	-248.3036499023438	230.1000518798829	-1086.5068359375	-340.2882690429688	108.9200515747071	-1104.279907226563	-302.7865905761719	137.5870666503907	-1017.090209960938	-407.7160034179689	105.4808044433594	-1040.223388671875	-198.6123504638672	60.00223541259767	-1020.249084472656	-190.2193603515625	54.66548919677736	-1069.086669921875	-243.0101470947266	37.10405731201173	-1118.651977539063	-235.4412231445313	764.7390136718751	-847.4475097656252	-171.8852691650391	746.5187988281251	-855.686706542969	-147.8785858154297	767.1831054687501	-864.6618652343752	-145.9910430908203	667.9783935546876	-869.1341552734377	-107.746208190918	586.6730957031251	-874.2104492187502	-76.66379547119142	613.5559082031251	-1005.215087890625	-18.82337760925293	507.7879638671876	-884.7189941406252	-57.10987091064455	413.4924621582032	-853.177185058594	-12.64547348022461	422.9167480468751	-863.7333984375002	18.66280364990235	382.7187500000001	-890.2239990234377	25.58463096618653	198.3076934814454	-874.6646118164065	61.55427169799806	224.0659637451172	-958.365173339844	-20.02278137207032	151.4008026123047	-936.536804199219	200.6026153564454	181.463623046875	-933.4305419921877	200.4378509521485	190.4082946777344	-885.7012939453127	153.3292388916016	161.0771484375	-840.7736816406252	
550	2.745	-203.0645599365235	1727.3837890625	-1079.742065429688	-362.4826354980469	1675.830322265625	-1155.6767578125	-383.0792236328126	1671.44287109375	-1016.526977539063	-411.4922485351564	1514.1982421875	-1074.9384765625	-484.1673889160157	1190.657592773438	-1075.203125	-274.2941894531251	1441.051879882813	-1086.673583984375	-342.2694396972657	1505.6171875	-1234.596801757813	-235.1536254882813	1376.141479492188	-1389.0146484375	-197.5581207275391	1408.017456054688	-1385.6083984375	-172.0034790039063	1362.102416992188	-1416.017578125	-117.440788269043	1361.13427734375	-1428.439086914063	-110.4072265625	1295.56884765625	-1384.082641601563	151.0912017822266	1360.079223632813	-1416.458251953125	146.1036376953125	1329.191162109375	-1489.419799804688	233.9325866699219	1377.693603515625	-1456.241943359375	-323.0101928710938	1497.341796875	-932.538024902344	-184.1876678466797	1373.51171875	-800.050720214844	-147.8956451416016	1403.695434570313	-807.484802246094	-117.8423614501953	1355.42333984375	-785.0063476562502	-73.28650665283205	1348.603637695313	-783.5614013671877	-73.26104736328126	1295.357666015625	-836.3218994140627	194.3726348876954	1413.358154296875	-862.4664306640627	195.5028076171876	1367.6474609375	-796.6375122070315	270.8445129394532	1438.3896484375	-839.6416625976565	-308.4001464843751	1004.844299316406	-1180.724243164063	-312.9757995605469	1031.213989257813	-934.3479003906252	-496.5559387207032	1094.60546875	-1066.37353515625	-500.3159790039064	1060.504760742188	-1092.469604492188	-502.159149169922	1064.271606445313	-1035.569946289063	-325.2740173339844	756.1747436523439	-1252.804443359375	-267.5415649414063	695.4385986328126	-1246.115966796875	-224.8586120605469	715.7630615234376	-1241.4384765625	-273.6690979003907	637.6952514648439	-1226.2724609375	-221.3409118652344	499.8071594238282	-1191.384521484375	-185.0541687011719	518.7762451171876	-1060.675048828125	-203.2366180419922	345.7353820800782	-1113.74609375	-263.8083496093751	300.5574340820313	-1161.349975585938	-226.6033935546876	295.6267089843751	-1135.860717773438	-248.0956420898438	229.8428802490235	-1086.770141601563	-340.1744995117188	108.7708740234375	-1104.410400390625	-302.7135314941407	137.7237548828125	-1017.339599609375	-407.753631591797	105.484977722168	-1040.30908203125	-198.6700744628907	60.1520347595215	-1020.353942871094	-190.2299957275391	54.75925827026369	-1069.171020507813	-243.0467071533204	36.99807357788087	-1118.665283203125	-235.8550415039063	763.9653320312501	-847.0112304687502	-172.2959442138672	746.2158203125001	-855.3587036132815	-148.1569519042969	766.8373413085939	-864.344665527344	-146.0923919677735	667.6215820312501	-868.7907714843752	-108.052490234375	586.3461914062501	-873.7980957031252	-76.74492645263673	613.1256713867189	-1004.8642578125	-18.96699905395508	507.5590820312501	-884.335876464844	-57.38193893432619	413.0340270996095	-852.7163696289065	-12.66926670074463	422.704071044922	-863.4068603515627	18.52064895629883	382.4080200195313	-889.7033691406252	25.40907096862794	198.0506134033204	-874.1202392578127	61.4447708129883	223.7071228027344	-957.9685668945315	-20.21767234802246	151.13720703125	-936.090026855469	200.4446258544922	181.0475463867188	-932.6860961914065	200.6662750244141	190.1786041259766	-885.1885986328127	153.2883453369141	160.9176788330078	-840.245544433594	
551	2.75	-202.2884063720704	1726.440307617188	-1080.4990234375	-361.8085327148438	1674.928100585938	-1156.082763671875	-382.4269104003907	1670.58447265625	-1016.981262207031	-411.1895751953126	1513.381591796875	-1075.374389648438	-484.2520141601564	1189.914306640625	-1075.428955078125	-274.1789855957032	1440.044067382813	-1086.983276367188	-341.7130126953126	1504.265258789063	-1234.626220703125	-234.4975891113282	1374.910888671875	-1389.096923828125	-196.7772521972657	1406.698974609375	-1385.674072265625	-171.6215362548828	1361.053466796875	-1416.006713867188	-116.7957534790039	1360.03369140625	-1428.21728515625	-109.9199371337891	1294.676879882813	-1383.899047851563	151.8670806884766	1359.118286132813	-1415.86181640625	146.8270263671875	1327.880737304688	-1488.849609375	234.6379547119141	1376.126098632813	-1455.481079101563	-322.7681884765626	1496.67529296875	-932.9490966796877	-183.9013977050782	1372.886352539063	-800.4005126953127	-147.378646850586	1403.127563476563	-807.899353027344	-117.564682006836	1354.89404296875	-785.4988403320315	-72.90246582031251	1348.11328125	-783.8898925781252	-72.92415618896486	1295.061279296875	-836.527770996094	194.6909484863282	1412.890869140625	-863.2164306640627	195.8874816894532	1367.243530273438	-797.2893066406252	271.2174682617188	1438.020263671875	-840.4467773437502	-309.3638916015626	1004.10595703125	-1180.860229492188	-313.5722656250001	1030.346557617188	-934.483337402344	-496.757781982422	1093.838256835938	-1066.595825195313	-500.9442138671876	1059.811401367188	-1092.542846679688	-502.8646545410157	1063.563842773438	-1035.548828125	-325.5347900390626	755.4436645507814	-1252.964965820313	-267.7474670410157	694.9028320312501	-1246.344848632813	-225.0433959960938	715.3918457031251	-1241.651000976563	-273.3357849121094	637.0252685546876	-1226.553833007813	-221.0878448486329	499.5119628906251	-1191.5458984375	-184.5826873779297	518.5714111328126	-1060.926391601563	-202.8984069824219	345.3298034667969	-1113.976928710938	-263.5666198730469	300.4356994628907	-1161.6005859375	-226.3456420898438	295.5927124023438	-1136.134887695313	-248.0058288574219	229.7281494140626	-1086.950317382813	-340.4065856933594	108.6609802246094	-1104.525268554688	-302.5974121093751	137.8190612792969	-1017.546325683594	-407.7414550781251	105.4612655639649	-1040.41015625	-198.6038360595704	60.33761978149415	-1020.569152832031	-190.2420806884766	54.83193969726564	-1069.287231445313	-243.0311126708985	36.93825149536134	-1118.750610351563	-236.1534118652344	763.4566040039064	-846.8851318359377	-172.6796417236328	745.7927856445314	-855.1211547851565	-148.6634063720703	766.0059814453126	-864.3538818359377	-146.3077239990235	667.1690063476564	-868.4412231445315	-108.1617279052735	586.1184082031251	-873.5446777343752	-76.79361724853517	612.7683105468751	-1004.473693847656	-19.10561561584473	507.2660522460939	-883.8370361328127	-57.4115562438965	412.6958618164064	-852.331726074219	-12.89433479309082	422.4219360351564	-862.9922485351565	18.42754554748536	382.0926818847657	-889.2083740234377	25.22298240661622	197.7778015136719	-873.5679321289065	61.24675369262697	223.3523712158204	-957.505554199219	-20.23470115661621	150.5968322753907	-935.5169677734377	199.8436126708985	180.6497802734375	-932.078063964844	199.7873992919922	189.4334869384766	-884.4011230468752	153.0343627929688	160.6224670410157	-839.6804199218752	
